<svg width="1281" height="1447" viewBox="0 0 1281 1447" fill="none" xmlns="http://www.w3.org/2000/svg">
<path d="M0.159363 -0.140869L1281.16 0.141309L1280.84 1446.14L-0.159162 1445.86L0.159363 -0.140869Z" fill="url(#paint0_radial_5_66)"/>
<mask id="mask0_5_66" style="mask-type:luminance" maskUnits="userSpaceOnUse" x="105" y="186" width="30" height="24">
<path d="M107.5 191.125L120 188L132.5 191.125L120 194.25L107.5 191.125Z" stroke="white" stroke-width="3.33333" stroke-linecap="round" stroke-linejoin="round"/>
<path d="M113.125 193V199.231C113.125 199.231 116.25 201.125 120 201.125C123.75 201.125 126.875 199.231 126.875 199.231V193M109.375 191.75V205.5" stroke="white" stroke-width="3.33333" stroke-linecap="round" stroke-linejoin="round"/>
<path d="M107.5 204.25H111.25V208H107.5V204.25Z" fill="#555555" stroke="white" stroke-width="3.33333" stroke-linecap="round" stroke-linejoin="round"/>
</mask>
<g mask="url(#mask0_5_66)">
<path d="M105 183H135V213H105V183Z" fill="white" fill-opacity="0.1"/>
</g>
<g clip-path="url(#clip0_5_66)">
<mask id="mask1_5_66" style="mask-type:luminance" maskUnits="userSpaceOnUse" x="1045" y="507" width="30" height="24">
<path d="M1047.5 512.125L1060 509L1072.5 512.125L1060 515.25L1047.5 512.125Z" stroke="white" stroke-width="3.33333" stroke-linecap="round" stroke-linejoin="round"/>
<path d="M1053.12 514V520.231C1053.12 520.231 1056.25 522.125 1060 522.125C1063.75 522.125 1066.87 520.231 1066.87 520.231V514M1049.37 512.75V526.5" stroke="white" stroke-width="3.33333" stroke-linecap="round" stroke-linejoin="round"/>
<path d="M1047.5 525.25H1051.25V529H1047.5V525.25Z" fill="#555555" stroke="white" stroke-width="3.33333" stroke-linecap="round" stroke-linejoin="round"/>
</mask>
<g mask="url(#mask1_5_66)">
<path d="M1045 504H1075V534H1045V504Z" fill="white" fill-opacity="0.1"/>
</g>
</g>
<g clip-path="url(#clip1_5_66)">
<path d="M319 342L289 357L297.813 360L298.375 370.125L303.063 364.875L307.75 372L319 342ZM303.063 361.5L311.125 350.438L299.5 358.5L293.875 356.625L315.625 345.75L307.188 367.875L303.063 361.5Z" fill="white" fill-opacity="0.1"/>
</g>
<g clip-path="url(#clip2_5_66)">
<path d="M1084 288.75C1084.96 288.75 1085.88 289.115 1086.57 289.772C1087.27 290.428 1087.69 291.325 1087.74 292.28L1087.75 292.5V305H1088.69C1089.5 305 1090.16 305.615 1090.24 306.403L1090.25 306.562V308.75C1090.25 309.707 1089.88 310.627 1089.23 311.323C1088.57 312.019 1087.67 312.438 1086.72 312.494L1086.5 312.5H1074C1073.04 312.5 1072.12 312.135 1071.43 311.478C1070.73 310.822 1070.31 309.925 1070.26 308.97L1070.25 308.75V296.25H1068.06C1067.68 296.25 1067.3 296.107 1067.02 295.848C1066.73 295.589 1066.55 295.232 1066.51 294.847L1066.5 294.688V292.5C1066.5 291.543 1066.87 290.623 1067.52 289.927C1068.18 289.231 1069.08 288.812 1070.03 288.756L1070.25 288.75H1084ZM1084 291.25H1072.75V308.75C1072.75 309.082 1072.88 309.399 1073.12 309.634C1073.35 309.868 1073.67 310 1074 310C1074.33 310 1074.65 309.868 1074.88 309.634C1075.12 309.399 1075.25 309.082 1075.25 308.75V306.562C1075.25 305.7 1075.95 305 1076.81 305H1085.25V292.5C1085.25 292.168 1085.12 291.851 1084.88 291.616C1084.65 291.382 1084.33 291.25 1084 291.25ZM1087.75 307.5H1077.75V308.75C1077.75 309.188 1077.67 309.609 1077.54 310H1086.5C1086.83 310 1087.15 309.868 1087.38 309.634C1087.62 309.399 1087.75 309.082 1087.75 308.75V307.5ZM1079 300C1079.33 300 1079.65 300.132 1079.88 300.366C1080.12 300.601 1080.25 300.918 1080.25 301.25C1080.25 301.582 1080.12 301.899 1079.88 302.134C1079.65 302.368 1079.33 302.5 1079 302.5H1076.5C1076.17 302.5 1075.85 302.368 1075.62 302.134C1075.38 301.899 1075.25 301.582 1075.25 301.25C1075.25 300.918 1075.38 300.601 1075.62 300.366C1075.85 300.132 1076.17 300 1076.5 300H1079ZM1081.5 295C1081.83 295 1082.15 295.132 1082.38 295.366C1082.62 295.601 1082.75 295.918 1082.75 296.25C1082.75 296.582 1082.62 296.899 1082.38 297.134C1082.15 297.368 1081.83 297.5 1081.5 297.5H1076.5C1076.17 297.5 1075.85 297.368 1075.62 297.134C1075.38 296.899 1075.25 296.582 1075.25 296.25C1075.25 295.918 1075.38 295.601 1075.62 295.366C1075.85 295.132 1076.17 295 1076.5 295H1081.5ZM1070.25 291.25C1069.94 291.25 1069.65 291.362 1069.42 291.566C1069.19 291.769 1069.04 292.05 1069.01 292.354L1069 292.5V293.75H1070.25V291.25Z" fill="white" fill-opacity="0.1"/>
</g>
<path d="M142.079 576.25H147.92M145 558.75V560M152.955 562.045L152.071 562.929M156.25 570H155M135 570H133.75M137.929 562.929L137.045 562.045M140.58 574.42C139.706 573.546 139.111 572.432 138.87 571.22C138.629 570.008 138.753 568.751 139.226 567.609C139.699 566.467 140.5 565.491 141.528 564.804C142.556 564.118 143.764 563.751 145 563.751C146.236 563.751 147.444 564.118 148.472 564.804C149.5 565.491 150.301 566.467 150.774 567.609C151.247 568.751 151.371 570.008 151.13 571.22C150.889 572.432 150.294 573.546 149.42 574.42L148.735 575.104C148.343 575.495 148.033 575.96 147.821 576.472C147.609 576.984 147.5 577.532 147.5 578.086V578.75C147.5 579.413 147.237 580.049 146.768 580.518C146.299 580.987 145.663 581.25 145 581.25C144.337 581.25 143.701 580.987 143.232 580.518C142.763 580.049 142.5 579.413 142.5 578.75V578.086C142.5 576.967 142.055 575.894 141.265 575.104L140.58 574.42Z" stroke="white" stroke-opacity="0.1" stroke-width="3.33333" stroke-linecap="round" stroke-linejoin="round"/>
<path d="M721.079 152.25H726.92M724 134.75V136M731.955 138.045L731.071 138.929M735.25 146H734M714 146H712.75M716.929 138.929L716.045 138.045M719.58 150.42C718.706 149.546 718.111 148.432 717.87 147.22C717.629 146.008 717.753 144.751 718.226 143.609C718.699 142.467 719.5 141.491 720.528 140.804C721.556 140.118 722.764 139.751 724 139.751C725.236 139.751 726.444 140.118 727.472 140.804C728.5 141.491 729.301 142.467 729.774 143.609C730.247 144.751 730.371 146.008 730.13 147.22C729.889 148.432 729.294 149.546 728.42 150.42L727.735 151.104C727.343 151.495 727.033 151.96 726.821 152.472C726.609 152.984 726.5 153.532 726.5 154.086V154.75C726.5 155.413 726.237 156.049 725.768 156.518C725.299 156.987 724.663 157.25 724 157.25C723.337 157.25 722.701 156.987 722.232 156.518C721.763 156.049 721.5 155.413 721.5 154.75V154.086C721.5 152.967 721.055 151.894 720.265 151.104L719.58 150.42Z" stroke="white" stroke-opacity="0.1" stroke-width="3.33333" stroke-linecap="round" stroke-linejoin="round"/>
<circle cx="355" cy="495" r="10" fill="url(#paint1_radial_5_66)" fill-opacity="0.5"/>
<circle cx="105" cy="862" r="10" fill="url(#paint2_radial_5_66)" fill-opacity="0.5"/>
<circle cx="1137" cy="806" r="10" fill="url(#paint3_radial_5_66)" fill-opacity="0.5"/>
<circle cx="1147" cy="213" r="10" fill="url(#paint4_radial_5_66)" fill-opacity="0.5"/>
<circle cx="299" cy="173" r="10" fill="url(#paint5_radial_5_66)" fill-opacity="0.5"/>
<defs>
<radialGradient id="paint0_radial_5_66" cx="0" cy="0" r="1" gradientUnits="userSpaceOnUse" gradientTransform="translate(640.047 511) rotate(52.8248) scale(504.608 447.028)">
<stop stop-color="#71ACB4" stop-opacity="0.24"/>
<stop offset="1" stop-color="#13141B" stop-opacity="0"/>
</radialGradient>
<radialGradient id="paint1_radial_5_66" cx="0" cy="0" r="1" gradientUnits="userSpaceOnUse" gradientTransform="translate(355 490) rotate(108.435) scale(15.8114)">
<stop stop-color="#718590"/>
<stop offset="1" stop-color="#BFD7E4"/>
</radialGradient>
<radialGradient id="paint2_radial_5_66" cx="0" cy="0" r="1" gradientUnits="userSpaceOnUse" gradientTransform="translate(105 857) rotate(108.435) scale(15.8114)">
<stop stop-color="#718590"/>
<stop offset="1" stop-color="#C0D2DC"/>
</radialGradient>
<radialGradient id="paint3_radial_5_66" cx="0" cy="0" r="1" gradientUnits="userSpaceOnUse" gradientTransform="translate(1137 801) rotate(108.435) scale(15.8114)">
<stop stop-color="#718590"/>
<stop offset="1" stop-color="#21486D" stop-opacity="0"/>
</radialGradient>
<radialGradient id="paint4_radial_5_66" cx="0" cy="0" r="1" gradientUnits="userSpaceOnUse" gradientTransform="translate(1147 208) rotate(108.435) scale(15.8114)">
<stop stop-color="#718590"/>
<stop offset="1" stop-color="#C1D9DC" stop-opacity="0.8"/>
</radialGradient>
<radialGradient id="paint5_radial_5_66" cx="0" cy="0" r="1" gradientUnits="userSpaceOnUse" gradientTransform="translate(299 168) rotate(108.435) scale(15.8114)">
<stop stop-color="#718590"/>
<stop offset="1" stop-color="#C4D6DF"/>
</radialGradient>
<clipPath id="clip0_5_66">
<rect width="30" height="30" fill="white" transform="translate(1045 504)"/>
</clipPath>
<clipPath id="clip1_5_66">
<rect width="30" height="30" fill="white" transform="translate(289 342)"/>
</clipPath>
<clipPath id="clip2_5_66">
<rect width="30" height="30" fill="white" transform="translate(1064 285)"/>
</clipPath>
</defs>
</svg>
